<?xml version="1.0" standalone="no"?>
<!DOCTYPE svg PUBLIC "-//W3C//DTD SVG 20010904//EN"
 "http://www.w3.org/TR/2001/REC-SVG-20010904/DTD/svg10.dtd">
<svg version="1.0" xmlns="http://www.w3.org/2000/svg"
 width="512.000000pt" height="512.000000pt" viewBox="0 0 512.000000 512.000000"
 preserveAspectRatio="xMidYMid meet">
<metadata>
Created by potrace 1.14, written by Peter Selinger 2001-2017
</metadata>
<g transform="translate(0.000000,512.000000) scale(0.100000,-0.100000)"
fill="#000000" stroke="none">
<path d="M3008 4544 c-2 -1 -25 -6 -52 -9 -57 -8 -111 -36 -139 -72 -12 -15
-27 -23 -37 -20 -9 2 -25 0 -34 -5 -11 -6 -16 -5 -16 3 0 8 -4 8 -13 1 -7 -6
-22 -9 -32 -8 -11 2 -24 1 -30 -2 -5 -4 -19 -7 -30 -8 -11 -1 -33 -4 -50 -8
-16 -3 -41 -8 -55 -11 -45 -9 -64 -14 -100 -25 -19 -6 -45 -13 -58 -16 -55
-11 -327 -128 -337 -145 -4 -5 -11 -7 -16 -4 -5 4 -9 1 -9 -4 0 -6 -7 -11 -15
-11 -8 0 -15 -4 -15 -10 0 -5 -3 -9 -7 -8 -9 2 -91 -46 -142 -84 -20 -15 -56
-42 -80 -60 -45 -33 -235 -218 -281 -273 -47 -56 -116 -150 -160 -220 -62 -97
-64 -101 -106 -183 -20 -40 -41 -75 -45 -78 -5 -3 -9 -11 -9 -18 0 -8 -9 -34
-20 -60 -12 -25 -20 -49 -20 -52 1 -4 -2 -10 -7 -13 -9 -7 -34 -69 -36 -88 0
-7 -4 -13 -9 -13 -4 0 -7 -3 -6 -7 2 -10 -13 -64 -21 -78 -3 -5 -6 -14 -8 -20
-8 -36 -13 -55 -27 -96 -9 -25 -18 -56 -20 -70 -3 -13 -5 -24 -6 -24 -1 0 -3
-7 -5 -15 -8 -37 -15 -68 -25 -108 -6 -24 -8 -47 -5 -53 4 -5 2 -9 -3 -9 -5 0
-9 -6 -9 -12 0 -7 -6 -42 -12 -78 -6 -36 -13 -76 -15 -90 -9 -51 -17 -117 -22
-190 -5 -70 -9 -80 -57 -150 -28 -41 -57 -81 -64 -88 -7 -7 -13 -17 -13 -22 0
-5 -6 -15 -13 -22 -22 -22 -187 -275 -187 -286 0 -6 -4 -12 -8 -14 -7 -3 -142
-224 -142 -233 0 -2 -19 -36 -42 -77 -24 -40 -52 -91 -63 -113 -11 -22 -24
-43 -30 -47 -5 -4 -7 -8 -2 -8 4 0 0 -11 -9 -25 -9 -14 -12 -25 -8 -25 5 0 4
-4 -2 -8 -10 -6 -42 -70 -44 -90 -1 -4 -7 -16 -14 -27 -12 -19 -46 -112 -50
-138 -1 -7 -4 -16 -8 -22 -20 -33 -27 -197 -8 -203 5 -2 10 -10 10 -17 0 -18
10 -24 54 -30 23 -4 36 -2 36 5 0 6 4 8 10 5 5 -3 20 0 32 7 13 7 25 13 28 13
10 1 96 64 132 97 20 18 44 40 55 49 28 24 184 195 207 228 22 31 48 40 146
47 30 2 84 7 120 10 138 13 364 5 485 -16 33 -6 74 -13 90 -15 30 -5 37 -6
105 -23 19 -5 37 -9 40 -10 3 0 12 -3 20 -5 8 -3 44 -13 80 -22 36 -9 126 -37
200 -62 138 -45 148 -49 212 -77 20 -9 39 -16 43 -16 4 0 23 -7 43 -16 21 -9
47 -20 60 -25 12 -5 32 -13 45 -19 34 -15 71 -28 81 -28 5 0 12 -4 15 -9 3 -5
33 -20 66 -33 33 -13 63 -29 67 -34 4 -6 8 -7 8 -3 0 5 12 2 28 -7 15 -8 50
-24 77 -37 28 -12 93 -42 145 -66 52 -25 120 -56 150 -70 30 -14 97 -45 148
-69 51 -24 95 -44 98 -44 2 0 23 -9 47 -20 69 -32 147 -60 147 -54 0 4 6 1 13
-5 8 -6 22 -12 33 -14 10 -2 26 -7 34 -10 8 -3 31 -8 50 -11 58 -9 93 -17 102
-22 4 -3 8 -1 8 3 0 5 15 9 33 10 83 2 139 34 248 144 49 49 86 89 82 89 -5 0
-1 6 8 13 24 19 120 162 151 227 7 14 15 27 18 30 13 13 174 326 185 360 4 13
14 30 21 38 8 7 12 18 9 23 -9 13 10 14 61 4 93 -18 234 -24 309 -12 42 6 78
14 83 17 1 2 5 3 10 5 29 8 63 27 79 45 18 18 22 36 27 118 0 12 4 22 8 22 5
0 7 3 6 8 -1 4 2 36 7 72 4 36 9 74 10 85 5 45 17 152 20 183 2 18 7 92 11
165 3 73 8 135 11 140 2 4 -1 7 -8 7 -7 0 -8 4 -2 13 12 15 4 321 -12 427 -11
77 -17 109 -26 150 -5 25 -11 54 -14 65 -2 11 -8 34 -14 52 -5 17 -7 34 -3 37
3 3 0 6 -6 6 -6 0 -9 6 -6 14 3 8 0 17 -5 21 -6 3 -9 11 -6 16 4 5 3 15 -2 22
-4 6 -8 14 -8 17 -3 17 -30 96 -35 100 -3 3 -6 12 -8 20 -2 8 -15 42 -28 75
-14 33 -26 67 -27 75 -1 8 -5 20 -10 25 -4 6 -32 59 -62 119 -60 117 -171 299
-186 304 -5 2 -9 9 -9 15 0 11 -31 51 -80 105 -11 12 -19 22 -17 22 19 0 -201
220 -297 296 -44 36 -89 72 -99 80 -9 8 -22 14 -27 14 -6 0 -10 5 -10 10 0 6
-5 10 -11 10 -6 0 -25 11 -43 25 -18 14 -38 25 -44 25 -7 0 -12 5 -12 11 0 5
-4 7 -10 4 -5 -3 -10 -1 -10 4 0 6 -5 11 -12 11 -6 0 -19 6 -27 14 -36 32
-203 108 -325 147 -123 39 -158 50 -163 51 -2 0 -34 8 -72 18 -39 10 -72 15
-75 12 -4 -3 -6 2 -6 11 0 10 -5 17 -11 17 -5 0 -8 4 -4 9 3 5 1 12 -5 16 -6
4 -7 12 -4 18 4 7 4 9 -1 5 -5 -5 -15 1 -22 12 -8 11 -18 18 -23 15 -4 -3 -10
0 -12 5 -2 6 -12 13 -23 15 -11 2 -21 4 -22 5 -2 2 -6 3 -10 4 -5 1 -14 5 -20
9 -7 5 -13 6 -13 4 0 -3 -16 -1 -34 3 -19 4 -36 6 -38 4z"/>
</g>
</svg>
