<?xml version="1.0" standalone="no"?>
<!DOCTYPE svg PUBLIC "-//W3C//DTD SVG 20010904//EN"
 "http://www.w3.org/TR/2001/REC-SVG-20010904/DTD/svg10.dtd">
<svg version="1.0" xmlns="http://www.w3.org/2000/svg"
 width="512.000000pt" height="512.000000pt" viewBox="0 0 512.000000 512.000000"
 preserveAspectRatio="xMidYMid meet">
<metadata>
Created by potrace 1.14, written by Peter Selinger 2001-2017
</metadata>
<g transform="translate(0.000000,512.000000) scale(0.100000,-0.100000)"
fill="#000000" stroke="none">
<path d="M3440 3943 c-208 -16 -399 -114 -431 -222 -33 -110 78 -218 279 -273
112 -30 364 -31 474 0 94 26 167 62 219 109 49 45 69 81 69 128 0 47 -20 83
-69 128 -74 67 -190 109 -346 127 -88 10 -105 10 -195 3z"/>
<path d="M5040 3545 c-21 -25 -291 -172 -1055 -572 -104 -55 -345 -182 -535
-283 -190 -100 -509 -269 -710 -375 -989 -523 -897 -483 -1017 -446 -79 23
-399 183 -663 331 -76 43 -317 171 -625 335 -197 105 -340 186 -363 208 l-22
20 0 -695 c0 -648 1 -697 18 -717 9 -11 121 -76 247 -144 974 -524 1282 -688
1349 -716 76 -32 171 -34 232 -4 59 29 521 271 764 401 118 63 359 190 535
282 176 92 365 192 420 222 55 31 237 127 405 215 318 167 740 390 896 475 50
27 103 60 117 74 l27 25 0 689 c0 380 -2 690 -4 690 -2 0 -9 -7 -16 -15z"/>
<path d="M2357 3420 c-158 -33 -265 -98 -307 -186 -53 -108 38 -216 234 -281
76 -25 93 -27 261 -27 147 -1 193 2 250 18 406 111 373 399 -55 480 -109 21
-273 19 -383 -4z"/>
<path d="M1461 2930 c-76 -11 -190 -44 -244 -71 -98 -51 -164 -145 -151 -216
17 -91 167 -186 348 -220 124 -24 335 -14 443 21 95 31 193 93 228 144 48 71
28 167 -48 225 -123 94 -376 145 -576 117z"/>
</g>
</svg>
